<svg id="f0bd4ae9-a589-4176-9070-a323b02c461a" data-name="Capa 1" xmlns="http://www.w3.org/2000/svg" viewBox="0 0 100 100"><defs><style>.ef606b2b-6161-4425-ae63-affec6826ab6{fill:#1d1d1b;}</style></defs><path class="ef606b2b-6161-4425-ae63-affec6826ab6" d="M14.45,42.48a7.92,7.92,0,0,1-3-3,8.66,8.66,0,0,1,0-8.52,7.87,7.87,0,0,1,3-2.94,8.75,8.75,0,0,1,8.35,0,7.68,7.68,0,0,1,3,2.94,8.83,8.83,0,0,1,0,8.52,7.87,7.87,0,0,1-3,3,8.81,8.81,0,0,1-8.34,0Zm7.27-3.82a4.91,4.91,0,0,0,1.16-3.41,4.89,4.89,0,0,0-1.16-3.41,4,4,0,0,0-3.09-1.28,4,4,0,0,0-3.12,1.27,4.87,4.87,0,0,0-1.16,3.42,4.9,4.9,0,0,0,1.16,3.42A4,4,0,0,0,18.63,40,4,4,0,0,0,21.72,38.66Z"/><path class="ef606b2b-6161-4425-ae63-affec6826ab6" d="M43.51,27.23V43.37H39.58V36.73H33.46v6.64H29.53V27.23h3.93v6.32h6.12V27.23Z"/><path class="ef606b2b-6161-4425-ae63-affec6826ab6" d="M70.42,27.23V43.37H66.49V33.69l-3.61,9.68H59.7l-3.63-9.7v9.7H52.14V27.23h4.64l4.53,11.18L65.8,27.23Z"/><path class="ef606b2b-6161-4425-ae63-affec6826ab6" d="M87.56,27.23,82,38v5.33H78V38L72.45,27.23h4.46L80,34l3.11-6.76Z"/><path class="ef606b2b-6161-4425-ae63-affec6826ab6" d="M11.36,58.61a7.42,7.42,0,0,1,2.88-2.92,8.39,8.39,0,0,1,4.2-1,8,8,0,0,1,4.92,1.52A7.26,7.26,0,0,1,26.1,60.3H21.78a3.55,3.55,0,0,0-1.37-1.54,3.87,3.87,0,0,0-2-.53,3.74,3.74,0,0,0-2.95,1.27,5.62,5.62,0,0,0,0,6.76,3.76,3.76,0,0,0,2.95,1.26,3.77,3.77,0,0,0,2-.53,3.5,3.5,0,0,0,1.37-1.54H26.1a7.2,7.2,0,0,1-2.74,4.13,8,8,0,0,1-4.92,1.51,8.39,8.39,0,0,1-4.2-1,7.46,7.46,0,0,1-2.88-2.91,9.24,9.24,0,0,1,0-8.52Z"/><path class="ef606b2b-6161-4425-ae63-affec6826ab6" d="M43,54.83V71H39V64.33H32.91V71H29V54.83h3.93v6.32H39V54.83Z"/><path class="ef606b2b-6161-4425-ae63-affec6826ab6" d="M56.3,68.12h-6l-1,2.85H45.19L51,54.83h4.56L61.43,71H57.27Zm-1-3-2-5.91-2,5.91Z"/><path class="ef606b2b-6161-4425-ae63-affec6826ab6" d="M67.59,54.83V71H63.66V54.83Z"/><path class="ef606b2b-6161-4425-ae63-affec6826ab6" d="M79.14,71l-3.36-6.09h-.94V71H70.9V54.83h6.61a7.33,7.33,0,0,1,3.25.66,4.61,4.61,0,0,1,2,1.83,5.08,5.08,0,0,1,.67,2.59,4.81,4.81,0,0,1-.91,2.88,4.91,4.91,0,0,1-2.68,1.79L83.58,71Zm-4.3-8.88h2.44a2.24,2.24,0,0,0,1.62-.52,2,2,0,0,0,.54-1.5,1.94,1.94,0,0,0-.54-1.45,2.24,2.24,0,0,0-1.62-.53H74.84Z"/></svg>